<mxfile host="Electron" modified="2024-01-05T05:55:10.874Z" agent="Mozilla/5.0 (Macintosh; Intel Mac OS X 10_15_7) AppleWebKit/537.36 (KHTML, like Gecko) draw.io/22.1.11 Chrome/114.0.5735.289 Electron/25.9.8 Safari/537.36" etag="CZ1b2Keb1fNOiYpV8RqV" version="22.1.11" type="device">
  <diagram name="페이지-1" id="oF4s1JSkIHEOH0VB_uYJ">
    <mxGraphModel dx="1314" dy="854" grid="1" gridSize="10" guides="1" tooltips="1" connect="1" arrows="1" fold="1" page="1" pageScale="1" pageWidth="827" pageHeight="1169" math="0" shadow="0">
      <root>
        <mxCell id="0" />
        <mxCell id="1" parent="0" />
      </root>
    </mxGraphModel>
  </diagram>
</mxfile>
